<svg width="86" height="86" viewBox="0 0 86 86" fill="none" xmlns="http://www.w3.org/2000/svg">
<path d="M57.7809 61.8604C55.9834 62.0414 52.3885 62.9468 52.3885 65.1198C54.3857 66.7495 58.0206 70.2262 56.5826 71.0954C55.7837 72.3629 53.3471 74.1375 49.9918 71.0954" stroke="black" stroke-width="2"/>
<path d="M63.7722 62.4033C62.7736 64.3952 61.1359 68.9222 62.5739 71.0951C63.3728 71.4573 65.33 71.5297 66.768 68.9222" stroke="black" stroke-width="2"/>
<path d="M32.0169 65.6631C28.0225 67.655 20.6329 72.1819 23.0295 74.3549C23.2293 75.4414 24.4676 77.1797 27.8229 75.4414C29.6203 74.1738 33.2153 71.0955 33.2153 68.9225C32.4164 71.2765 31.1782 75.876 32.6161 75.4414C34.0541 75.0068 35.6119 74.1738 36.2111 73.8117" stroke="black" stroke-width="2"/>
<path d="M39.8062 65.1191C40.2056 66.9299 40.645 71.3121 39.207 74.3542C40.4054 71.4569 43.6408 65.228 44.5995 65.6626" stroke="black" stroke-width="2"/>
<path d="M46.3969 68.3787C46.7963 66.93 46.9961 64.3587 44.5994 65.6625" stroke="black" stroke-width="2"/>
<path d="M39.207 8.6227C39.207 14.707 34.0142 16.5902 31.4179 16.7713C25.6659 15.4675 25.0268 10.4335 25.4263 8.07946C24.947 1.9952 30.4193 0.836295 33.2154 1.01737C38.0086 1.45196 39.207 6.26867 39.207 8.6227Z" fill="#79BA6C" stroke="#79BA6C"/>
<path d="M57.7804 16.2279C54.4251 22.3122 49.5919 21.2982 47.5947 20.0306C45.1981 17.4231 46.9955 13.5117 48.1939 11.882C50.5905 7.53613 55.5835 8.6226 57.7804 9.70908C59.6977 12.3166 58.5793 15.1415 57.7804 16.2279Z" fill="#79BA6C" stroke="#79BA6C"/>
<path d="M60.7767 28.7228C59.818 26.5499 62.7739 23.8337 64.3716 22.7472C68.6856 19.7051 71.7613 21.8418 72.7599 23.2905C73.7186 25.898 70.3633 28.7228 68.5658 29.8093C63.7725 31.9823 61.3759 29.9904 60.7767 28.7228Z" fill="#79BA6C" stroke="#79BA6C"/>
<path d="M54.7846 39.5874C53.826 42.6296 35.2121 47.0117 26.025 48.8225C12.1245 31.8734 13.0432 26.1876 15.2401 25.4633C22.43 20.2482 30.6185 29.0848 33.8141 34.1551C54.9045 28.5054 56.5821 35.4226 54.7846 39.5874Z" fill="#79BA6C" stroke="#79BA6C"/>
<path d="M15.8394 16.228C19.6741 8.84 14.6411 6.99299 11.6453 6.99299C8.29003 8.73135 8.25008 13.1497 8.64952 15.1416C12.0048 19.4875 14.8408 17.6767 15.8394 16.228Z" fill="#79BA6C" stroke="#79BA6C"/>
<path d="M6.25276 67.2929C8.44968 64.9388 13.4427 60.5567 15.8393 61.8605C18.2359 63.1643 12.0446 68.9226 8.6494 71.6388C11.1141 71.527 14.7803 71.8014 16.4386 73.151M6.25276 67.2929C6.05304 70.9144 4.93461 78.1576 2.05865 78.1576C1.25977 78.3387 0.141336 77.2885 2.05865 71.6388L6.25276 67.2929ZM6.25276 67.2929V63.4902M16.4386 73.151C17.4678 73.9886 17.7235 75.2404 16.4386 77.0711C14.8408 79.7873 10.447 85.0024 5.65372 84.1332C4.05597 84.1332 1.45961 83.3727 3.85625 80.3305C4.65513 79.1657 8.29002 76.0991 16.4386 73.151ZM16.4386 73.151H20.0335" stroke="black" stroke-width="2"/>
<ellipse cx="65.11" cy="59.1268" rx="1.79748" ry="1.62971" fill="black"/>
<path d="M76.355 50.4521C74.7572 52.8062 71.4419 60.0131 70.9625 70.0087C72.9597 65.8439 77.5533 58.0575 79.9499 60.2304" stroke="black" stroke-width="2"/>
<path d="M81.1481 60.7734C82.5461 61.1356 83.7844 62.8377 77.5531 66.7491C79.1509 68.5598 82.7059 71.2036 84.1439 67.2923" stroke="black" stroke-width="2"/>
<path d="M44.487 65.7275V65.7747" stroke="black" stroke-linecap="round"/>
<path d="M79.038 59.7034C80.1982 59.9842 82.4743 60.6648 82.2976 61.1404" stroke="black" stroke-width="2"/>
<path d="M43.5403 67.2752L45.3378 65.6455" stroke="black"/>
</svg>
