<svg width="102" height="102" viewBox="0 0 102 102" fill="none" xmlns="http://www.w3.org/2000/svg">
<path d="M69.293 73.6233C67.1311 73.8409 62.8073 74.9287 62.8073 77.5395C65.2094 79.4976 69.5813 83.6748 67.8518 84.7191C66.8909 86.2421 63.9603 88.3742 59.9248 84.7191" stroke="black" stroke-width="2"/>
<path d="M76.4991 74.2757C75.298 76.6689 73.3283 82.108 75.0578 84.7188C76.0186 85.154 78.3727 85.241 80.1023 82.108" stroke="black" stroke-width="2"/>
<path d="M38.305 78.1923C33.5008 80.5855 24.613 86.0246 27.4955 88.6354C27.7358 89.9408 29.2252 92.0294 33.2607 89.9408C35.4226 88.4178 39.7464 84.7192 39.7464 82.1084C38.7855 84.9368 37.2962 90.463 39.0257 89.9408C40.7553 89.4186 42.6289 88.4178 43.3495 87.9827" stroke="black" stroke-width="2"/>
<path d="M47.6738 77.5387C48.1542 79.7144 48.6826 84.9795 46.9531 88.6346C48.3944 85.1535 52.2858 77.6695 53.4388 78.1917" stroke="black" stroke-width="2"/>
<path d="M55.6014 81.455C56.0818 79.7145 56.322 76.6251 53.4395 78.1915" stroke="black" stroke-width="2"/>
<path d="M46.9536 9.65859C46.9536 16.9688 40.7081 19.2315 37.5853 19.449C30.6673 17.8826 29.8986 11.8342 30.379 9.00589C29.8025 1.69568 36.3843 0.303264 39.7472 0.520829C45.5123 1.04299 46.9536 6.83023 46.9536 9.65859Z" fill="#DDCCAE" stroke="#DDCCAE"/>
<path d="M69.2927 18.7962C65.2571 26.1064 59.444 24.8881 57.0419 23.3651C54.1594 20.2322 56.3213 15.5327 57.7626 13.5746C60.6451 8.35307 66.6504 9.65847 69.2927 10.9639C71.5987 14.0968 70.2535 17.4908 69.2927 18.7962Z" fill="#DDCCAE" stroke="#DDCCAE"/>
<path d="M72.8961 33.8088C71.743 31.198 75.2982 27.9345 77.2199 26.6291C82.4084 22.974 86.1077 25.5413 87.3088 27.2818C88.4618 30.4148 84.4262 33.8088 82.2643 35.1142C76.4993 37.725 73.6167 35.3317 72.8961 33.8088Z" fill="#DDCCAE" stroke="#DDCCAE"/>
<path d="M65.6892 46.8625C64.5361 50.5176 42.1485 55.7827 31.0988 57.9584C14.3801 37.5942 15.4851 30.7627 18.1274 29.8924C26.775 23.6265 36.6236 34.2437 40.467 40.3355C65.8333 33.5475 67.8511 41.8585 65.6892 46.8625Z" fill="#DDCCAE" stroke="#DDCCAE"/>
<path d="M18.8479 18.7963C23.46 9.91966 17.4067 7.70049 13.8035 7.70049C9.76797 9.78912 9.71992 15.0977 10.2003 17.4909C14.2359 22.7125 17.6469 20.5369 18.8479 18.7963Z" fill="#DDCCAE" stroke="#DDCCAE"/>
<path d="M7.31771 80.1505C9.96003 77.3221 15.9653 72.057 18.8478 73.6235C21.7304 75.19 14.2838 82.1085 10.2002 85.372C13.1647 85.2378 17.5741 85.5674 19.5686 87.1889M7.31771 80.1505C7.07749 84.5017 5.73231 93.2043 2.27328 93.2043C1.31243 93.4219 -0.0327494 92.1601 2.27328 85.372L7.31771 80.1505ZM7.31771 80.1505V75.5815M19.5686 87.1889C20.8065 88.1953 21.1141 89.6993 19.5686 91.8989C17.6469 95.1624 12.3623 101.428 6.59722 100.384C4.67553 100.384 1.55279 99.4702 4.43532 95.8151C5.39617 94.4156 9.768 90.7311 19.5686 87.1889ZM19.5686 87.1889H23.8924" stroke="black" stroke-width="2"/>
<ellipse cx="78.1072" cy="70.3389" rx="2.1619" ry="1.95809" fill="black"/>
<path d="M91.6332 59.9164C89.7115 62.7448 85.724 71.4039 85.1475 83.4135C87.5496 78.4095 93.0744 69.0542 95.957 71.665" stroke="black" stroke-width="2"/>
<path d="M97.397 72.3174C99.0785 72.7525 100.568 74.7976 93.0732 79.497C94.9949 81.6727 99.2707 84.8492 101 80.1497" stroke="black" stroke-width="2"/>
<path d="M53.3037 78.2697V78.3264" stroke="black" stroke-linecap="round"/>
<path d="M94.86 71.0318C96.2554 71.3692 98.993 72.1868 98.7804 72.7583" stroke="black" stroke-width="2"/>
<path d="M52.165 80.1292L54.3269 78.1711" stroke="black"/>
</svg>
